<svg xmlns="http://www.w3.org/2000/svg" width="174.006" height="101.158" viewBox="0 0 174.006 101.158">
  <g id="luckytoad-logo" transform="translate(-1222.824 236.486)">
    <g id="Group_1" data-name="Group 1">
      <path id="Path_1" data-name="Path 1" d="M1285.911-198.322c-8.947,0-15.115-5.212-29.709-7.9-27.189-5.039-33.27,35.269-12.856,35.269.174,0-1.043,4.517-4.6,5.386-13.378,3.214-19.459-15.724-13.812-28.58,7.731-17.46,28.84-18.677,45.866-13.031,7.905,2.607,20.414,4.431,24.671-2.345C1299.463-202.839,1292.166-198.322,1285.911-198.322Zm-10.163,2.432c-2.519,1.651-5.212,8.253-6.6,11.815-2.606,6.341-10.425,29.709-12.249,34.312-1.737,5.125-3.562,13.378-10.251,14.42-2.692.174-4.69-1.216-6.254-3.561a20.542,20.542,0,0,0,3.909-3.127c7.123-8.339,13.2-30.751,17.982-43.261,1.824-4.517,4.083-9.382,8.774-11.553a7.509,7.509,0,0,1,4.343-.608C1276.79-197.279,1277.051-196.845,1275.748-195.89Z" fill="#305b33"/>
      <path id="Path_2" data-name="Path 2" d="M1308.233-169.568l1.738,1.824a12.762,12.762,0,0,1-5.039,6.428,9.4,9.4,0,0,1-5.473,1.824,5.152,5.152,0,0,1-4.6-2.258l2.085,3.3-.782,1.042c-3.735,5.3-8.165,7.47-12.248,7.47-9.729,0-14.073-10.945-10.685-21.021,3.388-10.251,12.336-15.9,19.025-14.941,6.515.955,13.03,8.425,7.3,22.064.087.087.174.174.261.174a3.641,3.641,0,0,0,1.824.52c3.04,0,5.212-3.735,6.515-6.427Zm-13.725,7.644-.521-.782c-1.737-3.562,1.129-11.293,3.735-10.511,0-4.6-1.65-8.253-4.6-9.208-4.257-1.389-9.642,3.475-11.988,10.859s-.781,14.42,3.475,15.809C1287.906-154.714,1291.815-157.32,1294.508-161.924Z" fill="#305b33"/>
      <path id="Path_3" data-name="Path 3" d="M1354.27-167.657c-4.952,11.9-11.467,17.894-19.2,17.72a5.974,5.974,0,0,1-6.167-4.6c-3.215,3.3-6.689,4.69-9.99,4.69-9.729,0-14.073-10.945-10.685-21.021,3.388-10.251,12.335-15.9,19.024-14.942a11.116,11.116,0,0,1,8.861,7.471l2.432-6.515h7.384l-5.733,15.549a68.158,68.158,0,0,0-2.954,10.077c-.174,1.477.261,4.083,2.345,4.083,3.91,0,7.471-3.823,10.859-10.164.608-1.129,1.216-2.345,2.085-4.256Zm-22.152-.609c1.651-6.775,0-13.03-4-14.333-4.257-1.389-9.643,3.475-11.988,10.859s-.781,14.42,3.475,15.81c3.3,1.042,7.3-1.564,9.99-6.168.521-1.476,1.477-3.822,2.432-6.081Z" fill="#305b33"/>
      <path id="Path_4" data-name="Path 4" d="M1394.832-169.047c.087-.174.173-.348.26-.521l1.651,1.911c-4.951,11.9-11.467,17.894-19.2,17.72h-1.3l-1.042-.26a5.5,5.5,0,0,1-3.823-4.256c-3.127,3.214-6.6,4.6-9.815,4.6-9.73,0-14.073-10.945-10.686-21.021,3.388-10.251,12.336-15.9,19.025-14.942a10.942,10.942,0,0,1,8.686,7.3l11.12-31.446h7.123l-14.073,39.785c-.868,2.694-1.911,5.647-2.693,8.6a12.213,12.213,0,0,0-.521,2.431c-.174,1.738.174,3.388,1.477,3.91a1.25,1.25,0,0,0,.608.173h.261c3.908,0,7.557-3.822,10.945-10.163q.912-1.693,1.824-3.648Zm-32.749,13.2c3.214,1.042,7.036-1.39,9.729-5.733.521-1.565,1.737-4.431,2.866-7.124,1.477-6.6-.173-12.509-4.082-13.725-4.257-1.389-9.643,3.475-11.988,10.859s-.782,14.42,3.475,15.809Z" fill="#305b33"/>
    </g>
    <g id="Group_2" data-name="Group 2">
      <path id="Path_5" data-name="Path 5" d="M1308.987-229.923v32.289h7.55v3.418H1305.57v-35.707Z" fill="#cfa642"/>
      <path id="Path_6" data-name="Path 6" d="M1320.923-199.164v-30.759h3.418v30.759a2.144,2.144,0,0,0,2.193,1.989,1.915,1.915,0,0,0,1.939-1.989v-30.759h3.468v30.759a5.42,5.42,0,0,1-5.458,5.407A5.577,5.577,0,0,1,1320.923-199.164Z" fill="#cfa642"/>
      <path id="Path_7" data-name="Path 7" d="M1343.724-223.394v-1.938c0-2.5-4.132-2.551-4.132,0v26.423a2.139,2.139,0,0,0,2.193,1.938,2.084,2.084,0,0,0,1.939-1.938v-2.55h3.264v2.55c0,6.989-10.661,6.682-10.661,0v-26.423a5.224,5.224,0,0,1,5.458-5.2,5.16,5.16,0,0,1,5.2,5.2v1.938Z" fill="#cfa642"/>
      <path id="Path_8" data-name="Path 8" d="M1362.291-215.946a8.786,8.786,0,0,1-2.6,6.223,9.742,9.742,0,0,1,2.6,6.376v9.131h-3.367v-9.131a5.251,5.251,0,0,0-2.194-4.386c-.612.2-1.377.408-1.989.612v12.9h-3.366v-35.707h3.366v19.18a5.132,5.132,0,0,0,4.183-5.153v-14.027h3.367Z" fill="#cfa642"/>
      <path id="Path_9" data-name="Path 9" d="M1377.542-229.923v8.365a19.033,19.033,0,0,1-3.826,11.274v16.068H1370.3v-16.068a19.862,19.862,0,0,1-3.622-11.274v-8.365h3.316v8.365a19.064,19.064,0,0,0,1.989,7.856,16.128,16.128,0,0,0,2.245-7.856v-8.365Z" fill="#cfa642"/>
    </g>
    <g id="Group_3" data-name="Group 3">
      <path id="Path_10" data-name="Path 10" d="M1284-232.817c-2.764,0-4.67-1.611-9.179-2.443-8.4-1.556-10.28,10.9-3.972,10.9a2.19,2.19,0,0,1-1.423,1.664c-4.133.993-6.012-4.858-4.267-8.83,2.389-5.395,8.911-5.771,14.171-4.027,2.443.806,6.308,1.369,7.623-.724C1288.19-234.213,1285.936-232.817,1284-232.817Zm-3.14.751c-.778.51-1.61,2.549-2.04,3.65-.805,1.96-3.22,9.18-3.784,10.6-.537,1.583-1.1,4.132-3.167,4.455a2.1,2.1,0,0,1-1.933-1.1,6.321,6.321,0,0,0,1.208-.966c2.2-2.577,4.08-9.5,5.556-13.367.564-1.4,1.261-2.9,2.711-3.569a2.317,2.317,0,0,1,1.342-.188C1281.186-232.495,1281.266-232.361,1280.863-232.066Z" fill="#305b33"/>
      <path id="Path_11" data-name="Path 11" d="M1293.909-223.343c-1.53,3.677-3.543,5.53-5.932,5.476h-.4c-.107-.028-.214-.054-.322-.081-1.02-.349-1.557-1.423-1.046-3.275.107-.348.644-1.69,1.1-2.791q.16-.523.322-1.047a3.8,3.8,0,0,0,.161-.752c.054-.536-.054-1.046-.456-1.208a.4.4,0,0,0-.188-.053h-.081c-1.208,0-2.335,1.181-3.381,3.14-.4,1.316-1.826,6.067-1.826,6.067h-2.5l2.335-6.818,4.134-11.675h2.2l-3.328,9.447a4.883,4.883,0,0,1,3.757-1.8h.4l.322.08c1.02.35,1.557,1.423,1.046,3.275-.107.349-.644,1.691-1.1,2.792q-.16.522-.322,1.046a3.83,3.83,0,0,0-.161.751c-.054.538.054,1.047.456,1.208a.376.376,0,0,0,.188.054h.081c1.208,0,2.335-1.181,3.381-3.141q.282-.522.564-1.126c.027-.054.054-.108.08-.162Z" fill="#305b33"/>
      <path id="Path_12" data-name="Path 12" d="M1301.72-223.263c-1.718,3.785-4.616,5.476-7.006,5.476a4.087,4.087,0,0,1-3.14-1.127,2.949,2.949,0,0,1-.7-2.631,3.963,3.963,0,0,1,3.275-3.435,2.633,2.633,0,0,1-.215-2.6c.7-1.529,3.033-1.986,4.375-1.449a2.521,2.521,0,0,1,1.691,1.8l-1.261.751c0-.108-.081-1.262-.886-1.583a1.8,1.8,0,0,0-2.335,1.045c-.4,1.182.563,2.578,2.362,3.034a.274.274,0,0,1,0,.537,3.06,3.06,0,0,1-1.825-.054,4.871,4.871,0,0,1-1.1-.617,3.225,3.225,0,0,0-1.61,2.522,2.179,2.179,0,0,0,1.61,2.443c2.469.322,5.1-2.2,6.227-4.724Z" fill="#305b33"/>
    </g>
  </g>
</svg>
